<svg width="24" height="24" viewBox="0 0 24 24" fill="none" xmlns="http://www.w3.org/2000/svg">
<path fill-rule="evenodd" clip-rule="evenodd" d="M16 10.3999C16 11.1353 15.8551 11.8635 15.5737 12.5429C15.2923 13.2223 14.8798 13.8396 14.3598 14.3596C13.8398 14.8797 13.2224 15.2922 12.543 15.5736C11.8636 15.855 11.1354 15.9999 10.4 15.9999C9.66457 15.9999 8.93637 15.855 8.25695 15.5736C7.57752 15.2922 6.96018 14.8797 6.44018 14.3596C5.92017 13.8396 5.50767 13.2223 5.22625 12.5429C4.94482 11.8635 4.79997 11.1353 4.79997 10.3999C4.79997 8.91464 5.38997 7.49026 6.44018 6.44005C7.49038 5.38985 8.91476 4.79985 10.4 4.79985C11.8852 4.79985 13.3096 5.38985 14.3598 6.44005C15.41 7.49026 16 8.91464 16 10.3999ZM14.8944 16.0255C13.4566 17.1741 11.6337 17.7286 9.79987 17.5751C7.96606 17.4216 6.26062 16.5718 5.0338 15.2002C3.80697 13.8286 3.1519 12.0393 3.20311 10.1998C3.25432 8.36034 4.00792 6.61026 5.30915 5.30903C6.61038 4.0078 8.36046 3.25419 10.2 3.20299C12.0395 3.15178 13.8288 3.80685 15.2004 5.03368C16.572 6.2605 17.4218 7.96594 17.5752 9.79975C17.7287 11.6336 17.1742 13.4565 16.0256 14.8943L20.5664 19.4335C20.6408 19.5078 20.6998 19.5961 20.74 19.6933C20.7803 19.7905 20.801 19.8947 20.801 19.9999C20.801 20.105 20.7803 20.2092 20.74 20.3064C20.6998 20.4036 20.6408 20.4919 20.5664 20.5663C20.492 20.6406 20.4037 20.6996 20.3065 20.7399C20.2093 20.7801 20.1052 20.8009 20 20.8009C19.8948 20.8009 19.7906 20.7801 19.6934 20.7399C19.5963 20.6996 19.508 20.6406 19.4336 20.5663L14.896 16.0255H14.8944Z" fill="currentColor"/>
</svg>
