<svg width="40" height="40" viewBox="0 0 40 40" fill="none" xmlns="http://www.w3.org/2000/svg">
<path d="M8.33332 16.6666C7.33332 16.6666 6.66666 15.9999 6.66666 14.9999C6.66666 8.49992 11.8333 3.33325 18.3333 3.33325C23.3333 3.33325 27.8333 6.66659 29.5 11.4999C29.6667 12.3333 29.3333 13.3333 28.3333 13.4999C27.5 13.8333 26.5 13.3333 26.1667 12.4999C25.1667 8.99992 22 6.66659 18.3333 6.66659C13.6667 6.66659 9.99999 10.3333 9.99999 14.9999C9.99999 15.9999 9.33332 16.6666 8.33332 16.6666Z" fill="#F44D29"/>
<path d="M30 30C29 30 28.3333 29.3333 28.3333 28.3333C28.3333 27.3333 29 26.6667 30 26.6667C33.6667 26.6667 36.6667 23.6667 36.6667 20C36.6667 16.3333 33.6667 13.3333 30 13.3333C29.5 13.3333 28.8333 13.3333 28.3333 13.5C27.5 13.6667 26.5 13.1667 26.3333 12.3333C26.1667 11.5 26.6667 10.5 27.5 10.3333C28.3333 10.1667 29.1667 10 30 10C35.5 10 40 14.5 40 20C40 25.5 35.5 30 30 30ZM13.3333 30H8.33332C7.33332 30 6.66666 29.3333 6.66666 28.3333C6.66666 27.3333 7.33332 26.6667 8.33332 26.6667H13.3333C14.3333 26.6667 15 27.3333 15 28.3333C15 29.3333 14.3333 30 13.3333 30Z" fill="#F44D29"/>
<path d="M30 29.9999H26.6667C25.6667 29.9999 25 29.3333 25 28.3333C25 27.3333 25.6667 26.6666 26.6667 26.6666H30C31 26.6666 31.6667 27.3333 31.6667 28.3333C31.6667 29.3333 31 29.9999 30 29.9999ZM8.33333 29.9999C3.66667 29.9999 0 26.3333 0 21.6666C0 16.9999 3.66667 13.3333 8.33333 13.3333C9.33333 13.3333 10 13.9999 10 14.9999C10 15.9999 9.33333 16.6666 8.33333 16.6666C5.5 16.6666 3.33333 18.8333 3.33333 21.6666C3.33333 24.4999 5.5 26.6666 8.33333 26.6666C9.33333 26.6666 10 27.3333 10 28.3333C10 29.3333 9.33333 29.9999 8.33333 29.9999ZM20 36.6666C19 36.6666 18.3333 35.9999 18.3333 34.9999V18.3333C18.3333 17.3333 19 16.6666 20 16.6666C21 16.6666 21.6667 17.3333 21.6667 18.3333V34.9999C21.6667 35.9999 21 36.6666 20 36.6666Z" fill="#F44D29"/>
<path d="M15 25.0001C14.5 25.0001 14.1667 24.8334 13.8333 24.5001C13.1667 23.8334 13.1667 22.8334 13.8333 22.1667L18.8333 17.1667C19.5 16.5001 20.5 16.5001 21.1667 17.1667C21.8333 17.8334 21.8333 18.8334 21.1667 19.5001L16.1667 24.5001C15.8333 24.8334 15.5 25.0001 15 25.0001Z" fill="#F44D29"/>
<path d="M25 25.0001C24.5 25.0001 24.1666 24.8334 23.8333 24.5001L18.8333 19.5001C18.1666 18.8334 18.1666 17.8334 18.8333 17.1667C19.5 16.5001 20.5 16.5001 21.1666 17.1667L26.1666 22.1667C26.8333 22.8334 26.8333 23.8334 26.1666 24.5001C25.8333 24.8334 25.5 25.0001 25 25.0001Z" fill="#F44D29"/>
</svg>
