<svg xmlns="http://www.w3.org/2000/svg" version="1.1" xmlns:xlink="http://www.w3.org/1999/xlink" xmlns:svgjs="http://svgjs.com/svgjs" width="1440" height="560" preserveAspectRatio="none" viewBox="0 0 1440 560"><g mask="url(&quot;#SvgjsMask1021&quot;)" fill="none"><rect width="1440" height="560" x="0" y="0" fill="rgba(237, 31, 36, 1)"></rect><path d="M 0,268 C 57.6,218 172.8,33.8 288,18 C 403.2,2.2 460.8,181.6 576,189 C 691.2,196.4 748.8,50.6 864,55 C 979.2,59.4 1036.8,213.4 1152,211 C 1267.2,208.6 1382.4,76.6 1440,43L1440 560L0 560z" fill="rgba(182, 37, 41, 1)"></path><path d="M 0,369 C 96,400.8 288,527 480,528 C 672,529 768,374.2 960,374 C 1152,373.8 1344,496.4 1440,527L1440 560L0 560z" fill="rgba(190, 66, 70, 1)"></path></g><defs><mask id="SvgjsMask1021"><rect width="1440" height="560" fill="#ffffff"></rect></mask></defs></svg>